<mxfile host="app.diagrams.net" agent="Mozilla/5.0 (Windows NT 10.0; Win64; x64) AppleWebKit/537.36 (KHTML, like Gecko) Chrome/131.0.0.0 Safari/537.36" version="25.0.1">
  <diagram name="Page-1" id="faFV3WT-l_WKuxYJ9zt9">
    <mxGraphModel dx="2074" dy="1132" grid="1" gridSize="10" guides="1" tooltips="1" connect="1" arrows="1" fold="1" page="1" pageScale="1" pageWidth="850" pageHeight="1100" math="0" shadow="0">
      <root>
        <mxCell id="0" />
        <mxCell id="1" parent="0" />
        <mxCell id="8B123adLyhjRnA0Wx5Nj-1" value="Power on device" style="ellipse;whiteSpace=wrap;html=1;" vertex="1" parent="1">
          <mxGeometry x="40" y="160" width="120" height="80" as="geometry" />
        </mxCell>
        <mxCell id="8B123adLyhjRnA0Wx5Nj-4" value="" style="rounded=0;whiteSpace=wrap;html=1;" vertex="1" parent="1">
          <mxGeometry x="180" y="140" width="640" height="450" as="geometry" />
        </mxCell>
        <mxCell id="8B123adLyhjRnA0Wx5Nj-5" value="System" style="text;html=1;align=center;verticalAlign=middle;resizable=0;points=[];autosize=1;strokeColor=none;fillColor=none;" vertex="1" parent="1">
          <mxGeometry x="480" y="140" width="60" height="30" as="geometry" />
        </mxCell>
        <mxCell id="8B123adLyhjRnA0Wx5Nj-8" value="" style="edgeStyle=orthogonalEdgeStyle;rounded=0;orthogonalLoop=1;jettySize=auto;html=1;" edge="1" parent="1" source="8B123adLyhjRnA0Wx5Nj-6" target="8B123adLyhjRnA0Wx5Nj-7">
          <mxGeometry relative="1" as="geometry" />
        </mxCell>
        <mxCell id="8B123adLyhjRnA0Wx5Nj-61" style="edgeStyle=orthogonalEdgeStyle;rounded=0;orthogonalLoop=1;jettySize=auto;html=1;entryX=0;entryY=0.5;entryDx=0;entryDy=0;" edge="1" parent="1" source="8B123adLyhjRnA0Wx5Nj-1" target="8B123adLyhjRnA0Wx5Nj-6">
          <mxGeometry relative="1" as="geometry" />
        </mxCell>
        <mxCell id="8B123adLyhjRnA0Wx5Nj-6" value="Start Game" style="rounded=1;whiteSpace=wrap;html=1;" vertex="1" parent="1">
          <mxGeometry x="280" y="170" width="120" height="60" as="geometry" />
        </mxCell>
        <mxCell id="8B123adLyhjRnA0Wx5Nj-10" value="" style="edgeStyle=orthogonalEdgeStyle;rounded=0;orthogonalLoop=1;jettySize=auto;html=1;" edge="1" parent="1" source="8B123adLyhjRnA0Wx5Nj-7" target="8B123adLyhjRnA0Wx5Nj-9">
          <mxGeometry relative="1" as="geometry" />
        </mxCell>
        <mxCell id="8B123adLyhjRnA0Wx5Nj-7" value="Button 2 to start" style="shape=parallelogram;perimeter=parallelogramPerimeter;whiteSpace=wrap;html=1;fixedSize=1;rounded=1;" vertex="1" parent="1">
          <mxGeometry x="480" y="170" width="120" height="60" as="geometry" />
        </mxCell>
        <mxCell id="8B123adLyhjRnA0Wx5Nj-12" value="" style="edgeStyle=orthogonalEdgeStyle;rounded=0;orthogonalLoop=1;jettySize=auto;html=1;" edge="1" parent="1" source="8B123adLyhjRnA0Wx5Nj-9" target="8B123adLyhjRnA0Wx5Nj-11">
          <mxGeometry relative="1" as="geometry" />
        </mxCell>
        <mxCell id="8B123adLyhjRnA0Wx5Nj-9" value="Handle throw" style="whiteSpace=wrap;html=1;rounded=1;" vertex="1" parent="1">
          <mxGeometry x="680" y="170" width="120" height="60" as="geometry" />
        </mxCell>
        <mxCell id="8B123adLyhjRnA0Wx5Nj-14" value="" style="edgeStyle=orthogonalEdgeStyle;rounded=0;orthogonalLoop=1;jettySize=auto;html=1;" edge="1" parent="1" source="8B123adLyhjRnA0Wx5Nj-11" target="8B123adLyhjRnA0Wx5Nj-13">
          <mxGeometry relative="1" as="geometry" />
        </mxCell>
        <mxCell id="8B123adLyhjRnA0Wx5Nj-11" value="Display the force" style="whiteSpace=wrap;html=1;rounded=1;" vertex="1" parent="1">
          <mxGeometry x="680" y="310" width="120" height="60" as="geometry" />
        </mxCell>
        <mxCell id="8B123adLyhjRnA0Wx5Nj-16" value="" style="edgeStyle=orthogonalEdgeStyle;rounded=0;orthogonalLoop=1;jettySize=auto;html=1;" edge="1" parent="1" source="8B123adLyhjRnA0Wx5Nj-13" target="8B123adLyhjRnA0Wx5Nj-15">
          <mxGeometry relative="1" as="geometry" />
        </mxCell>
        <mxCell id="8B123adLyhjRnA0Wx5Nj-17" value="Yes" style="edgeLabel;html=1;align=center;verticalAlign=middle;resizable=0;points=[];" vertex="1" connectable="0" parent="8B123adLyhjRnA0Wx5Nj-16">
          <mxGeometry x="0.0615" y="2" relative="1" as="geometry">
            <mxPoint as="offset" />
          </mxGeometry>
        </mxCell>
        <mxCell id="8B123adLyhjRnA0Wx5Nj-22" value="" style="edgeStyle=orthogonalEdgeStyle;rounded=0;orthogonalLoop=1;jettySize=auto;html=1;" edge="1" parent="1" source="8B123adLyhjRnA0Wx5Nj-13" target="8B123adLyhjRnA0Wx5Nj-21">
          <mxGeometry relative="1" as="geometry" />
        </mxCell>
        <mxCell id="8B123adLyhjRnA0Wx5Nj-27" value="No" style="edgeLabel;html=1;align=center;verticalAlign=middle;resizable=0;points=[];" vertex="1" connectable="0" parent="8B123adLyhjRnA0Wx5Nj-22">
          <mxGeometry x="-0.08" relative="1" as="geometry">
            <mxPoint as="offset" />
          </mxGeometry>
        </mxCell>
        <mxCell id="8B123adLyhjRnA0Wx5Nj-13" value="High Score?" style="rhombus;whiteSpace=wrap;html=1;rounded=1;" vertex="1" parent="1">
          <mxGeometry x="530" y="300" width="80" height="80" as="geometry" />
        </mxCell>
        <mxCell id="8B123adLyhjRnA0Wx5Nj-23" style="edgeStyle=orthogonalEdgeStyle;rounded=0;orthogonalLoop=1;jettySize=auto;html=1;" edge="1" parent="1" source="8B123adLyhjRnA0Wx5Nj-15" target="8B123adLyhjRnA0Wx5Nj-21">
          <mxGeometry relative="1" as="geometry">
            <Array as="points">
              <mxPoint x="430" y="470" />
            </Array>
          </mxGeometry>
        </mxCell>
        <mxCell id="8B123adLyhjRnA0Wx5Nj-15" value="Flash Light, Play sound, update score" style="whiteSpace=wrap;html=1;rounded=1;" vertex="1" parent="1">
          <mxGeometry x="510" y="440" width="120" height="60" as="geometry" />
        </mxCell>
        <mxCell id="8B123adLyhjRnA0Wx5Nj-26" style="edgeStyle=orthogonalEdgeStyle;rounded=0;orthogonalLoop=1;jettySize=auto;html=1;" edge="1" parent="1" source="8B123adLyhjRnA0Wx5Nj-21" target="8B123adLyhjRnA0Wx5Nj-7">
          <mxGeometry relative="1" as="geometry">
            <Array as="points">
              <mxPoint x="390" y="270" />
              <mxPoint x="540" y="270" />
            </Array>
          </mxGeometry>
        </mxCell>
        <mxCell id="8B123adLyhjRnA0Wx5Nj-30" value="" style="edgeStyle=orthogonalEdgeStyle;rounded=0;orthogonalLoop=1;jettySize=auto;html=1;" edge="1" parent="1" source="8B123adLyhjRnA0Wx5Nj-21" target="8B123adLyhjRnA0Wx5Nj-29">
          <mxGeometry relative="1" as="geometry" />
        </mxCell>
        <mxCell id="8B123adLyhjRnA0Wx5Nj-44" value="" style="edgeStyle=orthogonalEdgeStyle;rounded=0;orthogonalLoop=1;jettySize=auto;html=1;" edge="1" parent="1" source="8B123adLyhjRnA0Wx5Nj-21" target="8B123adLyhjRnA0Wx5Nj-43">
          <mxGeometry relative="1" as="geometry" />
        </mxCell>
        <mxCell id="8B123adLyhjRnA0Wx5Nj-21" value="Waiting state" style="whiteSpace=wrap;html=1;rounded=1;" vertex="1" parent="1">
          <mxGeometry x="330" y="310" width="120" height="60" as="geometry" />
        </mxCell>
        <mxCell id="8B123adLyhjRnA0Wx5Nj-39" style="edgeStyle=orthogonalEdgeStyle;rounded=0;orthogonalLoop=1;jettySize=auto;html=1;entryX=0.5;entryY=1;entryDx=0;entryDy=0;" edge="1" parent="1" source="8B123adLyhjRnA0Wx5Nj-29" target="8B123adLyhjRnA0Wx5Nj-7">
          <mxGeometry relative="1" as="geometry">
            <mxPoint x="540" y="270" as="targetPoint" />
            <Array as="points">
              <mxPoint x="200" y="430" />
              <mxPoint x="200" y="270" />
              <mxPoint x="540" y="270" />
            </Array>
          </mxGeometry>
        </mxCell>
        <mxCell id="8B123adLyhjRnA0Wx5Nj-40" value="No" style="edgeLabel;html=1;align=center;verticalAlign=middle;resizable=0;points=[];" vertex="1" connectable="0" parent="8B123adLyhjRnA0Wx5Nj-39">
          <mxGeometry x="-0.6706" relative="1" as="geometry">
            <mxPoint as="offset" />
          </mxGeometry>
        </mxCell>
        <mxCell id="8B123adLyhjRnA0Wx5Nj-46" style="edgeStyle=orthogonalEdgeStyle;rounded=0;orthogonalLoop=1;jettySize=auto;html=1;entryX=0.25;entryY=1;entryDx=0;entryDy=0;" edge="1" parent="1" source="8B123adLyhjRnA0Wx5Nj-29" target="8B123adLyhjRnA0Wx5Nj-21">
          <mxGeometry relative="1" as="geometry" />
        </mxCell>
        <mxCell id="8B123adLyhjRnA0Wx5Nj-47" value="Yes" style="edgeLabel;html=1;align=center;verticalAlign=middle;resizable=0;points=[];" vertex="1" connectable="0" parent="8B123adLyhjRnA0Wx5Nj-46">
          <mxGeometry x="-0.6545" y="5" relative="1" as="geometry">
            <mxPoint as="offset" />
          </mxGeometry>
        </mxCell>
        <mxCell id="8B123adLyhjRnA0Wx5Nj-29" value="Pause Game?" style="rhombus;whiteSpace=wrap;html=1;rounded=1;" vertex="1" parent="1">
          <mxGeometry x="230" y="390" width="90" height="80" as="geometry" />
        </mxCell>
        <mxCell id="8B123adLyhjRnA0Wx5Nj-41" style="edgeStyle=orthogonalEdgeStyle;rounded=0;orthogonalLoop=1;jettySize=auto;html=1;exitX=0.5;exitY=1;exitDx=0;exitDy=0;" edge="1" parent="1" source="8B123adLyhjRnA0Wx5Nj-4" target="8B123adLyhjRnA0Wx5Nj-4">
          <mxGeometry relative="1" as="geometry" />
        </mxCell>
        <mxCell id="8B123adLyhjRnA0Wx5Nj-50" value="" style="edgeStyle=orthogonalEdgeStyle;rounded=0;orthogonalLoop=1;jettySize=auto;html=1;" edge="1" parent="1" source="8B123adLyhjRnA0Wx5Nj-43" target="8B123adLyhjRnA0Wx5Nj-49">
          <mxGeometry relative="1" as="geometry" />
        </mxCell>
        <mxCell id="8B123adLyhjRnA0Wx5Nj-52" value="Yes" style="edgeLabel;html=1;align=center;verticalAlign=middle;resizable=0;points=[];" vertex="1" connectable="0" parent="8B123adLyhjRnA0Wx5Nj-50">
          <mxGeometry x="-0.0783" y="4" relative="1" as="geometry">
            <mxPoint as="offset" />
          </mxGeometry>
        </mxCell>
        <mxCell id="8B123adLyhjRnA0Wx5Nj-55" style="edgeStyle=orthogonalEdgeStyle;rounded=0;orthogonalLoop=1;jettySize=auto;html=1;" edge="1" parent="1" source="8B123adLyhjRnA0Wx5Nj-43" target="8B123adLyhjRnA0Wx5Nj-21">
          <mxGeometry relative="1" as="geometry" />
        </mxCell>
        <mxCell id="8B123adLyhjRnA0Wx5Nj-56" value="No" style="edgeLabel;html=1;align=center;verticalAlign=middle;resizable=0;points=[];" vertex="1" connectable="0" parent="8B123adLyhjRnA0Wx5Nj-55">
          <mxGeometry x="-0.1231" y="-4" relative="1" as="geometry">
            <mxPoint as="offset" />
          </mxGeometry>
        </mxCell>
        <mxCell id="8B123adLyhjRnA0Wx5Nj-43" value="End Game?" style="rhombus;whiteSpace=wrap;html=1;rounded=1;" vertex="1" parent="1">
          <mxGeometry x="350" y="500" width="80" height="80" as="geometry" />
        </mxCell>
        <mxCell id="8B123adLyhjRnA0Wx5Nj-49" value="Device Powers off" style="ellipse;whiteSpace=wrap;html=1;rounded=1;" vertex="1" parent="1">
          <mxGeometry x="40" y="500" width="80" height="80" as="geometry" />
        </mxCell>
      </root>
    </mxGraphModel>
  </diagram>
</mxfile>
